<?xml version="1.0" encoding="utf-8"?>
<!-- Generator: Adobe Illustrator 21.1.0, SVG Export Plug-In . SVG Version: 6.00 Build 0)  -->
<svg version="1.1" id="Capa_1" xmlns="http://www.w3.org/2000/svg" xmlns:xlink="http://www.w3.org/1999/xlink" x="0px" y="0px"
	 viewBox="0 0 600 600" style="enable-background:new 0 0 600 600;" xml:space="preserve">
<style type="text/css">
	.st0{enable-background:new    ;}
</style>
<g>
	<g>
		<path d="M256.6,461c-3.8-9.4-7.5-18.8-11.5-28.1c-4.3-10-8.8-19.9-13.2-29.8c-4.2-9.5-8.5-18.9-12.8-28.4
			c-1.9-4.1-2.2-7.7,1.2-11.8c6.3-7.5,10-16.4,12.7-25.9c5.6-20.1,3.1-39.2-6-57.7c-1.6-3.3-4-6.2-6.2-9.2
			c-2.7-3.8-6.4-5.2-11.1-5.1c-16,0.2-32,0.1-48,0.2c-2.2,0-4.6,0.1-4.7-3c-0.1-3.1,2-3.7,4.6-3.6c16.8,0.2,33.7,0.2,50.5,0.6
			c9.7,0.2,14.9,6.9,19.1,14.4c10.8,19.5,14.1,40.3,9.4,62c-2.3,10.5-6.6,20.3-13,29.1c-2.3,3.1-2.5,5.9-1,9.1
			c6.7,14.9,13.5,29.8,20.2,44.8c3.1,6.9,6.1,13.7,9.2,20.6c0.5,1.1,1.2,2,1.8,3.1c0.5-0.1,0.9-0.2,1.4-0.3c0-5.3,0-10.6,0-15.8
			c0.2-20.4,0.4-40.8,0.5-61.3c0-6.1,0.9-7.2,7.1-7.2c23.1-0.1,46.3-0.1,69.4,0c7.4,0,7.5,0,7.5-7.2c0-14.9,0.4-29.7-0.1-44.5
			c-0.5-15.5-6.4-28.8-20.9-35.8c-15-7.2-30.4-7-44.1,3.7c-10.3,8.1-13.9,19.7-14,32.6c0,11.8,0.1,23.7-0.2,35.5
			c0,1.6-2.2,3.1-3.3,4.6c-1.1-1.6-3.1-3.2-3.1-4.8c0.1-14.6-0.6-29.2,1.1-43.6c2.4-21.4,18-37.1,41-37.7c9-0.2,17.7,0.5,25.8,4.7
			c7.4,3.8,12.8,9.4,17.2,16.4c7.1,11.1,7.2,23.5,7.1,36c-0.1,13.4-0.4,26.8-0.4,40.3c0,4.1-1.6,5.6-5.6,5.6
			c-22.3,0-44.6,0-66.9,0.2c-12.2,0.1-11.1-1.4-11,10.5c0.1,26.2,0.1,52.4,0.3,78.6C266.8,461.3,266.2,461.9,256.6,461z"/>
		<path d="M247.3,114.9V34.8c0-5.9-0.4-6.2-6.3-6.4c-0.6,0-1.3,0-1.9-0.1h-82.6c-0.4,0.1-0.8,0.2-1.2,0.2c-0.2,0-0.4,0.1-0.6,0.1
			c-0.2,0.1-0.4,0.1-0.6,0.2c-0.1,0.1-0.3,0.2-0.4,0.2c-0.2,0.1-0.4,0.3-0.6,0.4c0,0,0,0,0,0c-0.1,0.3-0.3,0.6-0.5,0.8
			c0,0.2-0.1,0.3-0.1,0.5c-0.1,3.7,2,4.4,5.2,4.4c12.5-0.1,24.9,0,37.3,0.1c13.4,0.2,26.8,0.4,40.2,0.4c3.4,0,4.4,1.2,4.2,4.6
			c-0.2,3.7,0.3,7.4,0.4,11.1c0.5,36.6,1.1,73.1,1.5,109.7c0.2,12.9,0.7,25.8-0.6,38.5c-1.7,16.6-13.1,28.9-28.3,32.1
			c-14.5,3-28,0.4-38.7-10.4c-8.3-8.4-12.4-19.1-13.1-30.8c-0.7-12.4-0.6-24.8-0.8-37.2c0-2.5,0.1-5.2-3.5-5.1
			c-3.3,0.2-3.8,2.5-3.7,5.2c0.3,13.5-0.6,27.2,1.1,40.6c2.5,19.6,11.6,35.7,31.8,42c15.5,4.9,31.2,4.3,44.9-5.9
			c10.1-7.5,15.1-17.7,16.8-29.1L247.3,114.9C247.3,114.9,247.3,114.9,247.3,114.9z"/>
		<path d="M350.8,138.8c0.1-4-1.3-5.4-5.5-5.4c-23.9-0.1-47.7-0.5-71.6-0.8c-6.9-0.1-7.7-0.8-7.7-7.8v-24.4
			c-0.1-21.1-0.2-42.3-0.3-63.4c0-2.4,0.1-4.7-2.9-5.4c-1.5-0.3-2.8,0.1-3.6,1v51.2h0c0,15.3-0.1,30.6,0,45.9c0.1,8.8,0.3,8.9,9.2,9
			l69.9,0.6c5.4,0,6.2,0.7,6.1,5.6c-0.2,16,0,31.9-0.7,47.9c-1,23.3-17,40.5-41.9,39.1c-10.8-0.6-20.5-3.8-27.5-12.5
			c-7-8.8-9.9-19-9.9-30.2c0-11.6-0.4-23.1-0.5-34.7c0-2.4-0.4-4.5-3.2-4.5c-3,0-3.4,2.3-3.4,4.9c0.2,12.7-0.2,25.4,0.6,38.1
			c0.8,12.6,4.6,24.5,14.4,33.3c12.2,10.9,26.8,12.9,42.1,10.2c23.1-4.1,33.9-21.8,35.5-39.5C351.6,177.7,350.5,158.2,350.8,138.8z"
			/>
		<path d="M368.4,280.7c0,7.4,0,14.8,0,22.2c-0.1,49.7-0.3,99.4-0.4,149.1c0,0.7,0,1.4,0,2.1c0.2,2.7-0.8,4.8-3.5,4.8
			s-3.7-2-3.7-4.7c0.1-9,0.1-18,0.2-27c0.2-13.4,0.6-26.8,0.7-40.2c0.2-35.1,0.3-70.3,0.5-105.4c0-4.7-0.3-9.4,0.1-14.1
			c0.1-1.8,1.8-3.5,2.8-5.2c1.5,0.9,3.5,1.4,4.3,2.7c4.4,7,8.6,14.1,12.7,21.2c7.3,12.7,14.5,25.4,21.7,38.1c0.6,1,1.5,2,1.6,3
			c0.1,1.4-0.6,2.8-0.9,4.1c-1.4-0.4-3.3-0.3-4-1.2c-2.2-2.9-4.1-6.1-5.9-9.3c-7.5-12.9-14.9-25.9-22.4-38.9
			c-0.5-0.9-1.6-1.5-2.5-2.2C369.2,280.2,368.8,280.5,368.4,280.7z"/>
		<path d="M370.2,64.1c-0.1,1.3-0.3,2.6-0.3,3.9c-0.2,30.4-0.3,60.7-0.5,91.1c-0.2,23.7-0.4,47.4-0.6,71c0,2.5-0.5,5.1-3.4,4.7
			c-1.1-0.2-2.7-3.1-2.7-4.8c-0.2-25.7,0-51.4-0.1-77.1c0-38.1-0.1-76.2-0.2-114.3c0-2.7,0.8-4.3,3.5-4.9c2.9-0.6,3.8,1.4,4.5,3.4
			c4.1,11.6,8.2,23.3,12.3,34.9c1.8,4.9,3.9,9.8,5.3,14.8c0.4,1.4-0.9,3.3-1.5,4.9c-1.5-0.8-3.9-1.3-4.5-2.6c-3-6.9-5.5-14-8.3-21.1
			c-0.6-1.5-1.5-2.9-2.3-4.4C371,63.9,370.6,64,370.2,64.1z"/>
		<path d="M447.7,210.9c0-13.8-0.1-27.6,0-41.5c0.2-40.5,0.5-81,0.8-121.6c0-2.4,0.4-4.8,0.5-7.3c0-2.8,1.7-4.2,4-3.7
			c1,0.2,2.3,2.6,2.3,4c-0.1,27.9-0.3,55.9-0.5,83.8c-0.2,23.2-0.5,46.4-0.7,69.7c-0.1,12-0.1,24-0.4,35.9c-0.1,1.9-1.7,3.8-2.7,5.7
			c-1.7-1.5-4.2-2.6-4.9-4.5c-6.1-15.7-11.8-31.5-17.7-47.2c-0.9-2.4-0.7-4.2,1.6-4.7c1.2-0.2,3.5,1.1,4,2.3
			c3.6,8.8,6.8,17.8,10.2,26.6c0.4,1.1,1.2,2,1.8,3C446.5,211.2,447.1,211,447.7,210.9z"/>
		<path d="M452.3,267.1c-0.4-0.7-0.9-1.2-1.2-1.3c-1.2-0.1-2.8,1-3.8,2c-0.5,0.5-0.3,1.9-0.3,2.9c-0.3,14.3-0.5,28.5-0.7,42.8
			c-0.4,29.7-0.9,59.3-1.2,89c-0.2,17.4,0,34.8-0.2,52.2c0,2.7,1.1,4.2,3.5,4.4c2.5,0.2,3.8-1.5,3.8-4.1c0-1,0.1-2,0.1-3v-89.9
			c0,0,0,0,0,0V267.1z"/>
		<path d="M351.3,114.3c-0.1-14.9-0.2-29.9-0.3-44.8c0-10.7,0.1-21.4-0.1-32.1c0-1.3-0.8-3.1-1.8-3.8c-0.9-0.6-3.2-0.4-3.8,0.3
			c-0.5,0.7-0.9,1.5-1.1,2.4v46.8h-0.1v13.1c0,6.8,0,13.7,0.3,20.5c0.1,1.4,1.8,2.7,2.8,4c1.3-1.3,2.8-2.5,4-4
			C351.7,116.3,351.3,115.2,351.3,114.3z"/>
		<path d="M349.9,417.3c0,12.3,0,24.5,0,36.8c0,2.6-0.3,5.3-3.5,5.2c-3.1-0.1-4.4-2.3-4.4-5.6c0.4-19.4,0.6-38.7,0.9-58.1
			c0.1-5.3,0.3-10.5,0.9-15.8c0.2-1.5,2.1-2.8,3.2-4.1c0.9,1.5,2.7,2.9,2.7,4.4C350,392.5,349.9,404.9,349.9,417.3L349.9,417.3z"/>
	</g>
</g>
<g class="st0">
	<path d="M164.2,520l0.7-0.8c0.5-0.5,0.8-0.3,1.1,0.1c0.5,0.6,1.7,1.7,3.1,1.7c1.9,0,3.9-1.4,3.9-4.8v-15.1c0-0.3,0.3-0.6,0.6-0.6
		h1.2c0.3,0,0.6,0.3,0.6,0.6v15c0,4.4-2.7,7-6.4,7c-2.8,0-4.3-1.7-4.8-2.4C163.9,520.6,164,520.2,164.2,520z"/>
	<path d="M182.5,501.2c0-0.3,0.3-0.6,0.6-0.6h1.2c0.3,0,0.6,0.3,0.6,0.6v13.3c0,3.6,2.3,6.5,6,6.5c3.8,0,6-2.8,6-6.4v-13.3
		c0-0.3,0.3-0.6,0.6-0.6h1.2c0.3,0,0.6,0.3,0.6,0.6v13.4c0,4.8-3.4,8.5-8.5,8.5c-5,0-8.4-3.7-8.4-8.5V501.2z"/>
	<path d="M204.3,522l9.7-21.4c0.1-0.2,0.3-0.3,0.5-0.3h0.3c0.3,0,0.4,0.2,0.5,0.3l9.6,21.4c0.2,0.4-0.1,0.8-0.5,0.8h-1.3
		c-0.3,0-0.5-0.2-0.5-0.3l-2.4-5.2H209l-2.3,5.2c-0.1,0.2-0.3,0.3-0.5,0.3h-1.3C204.3,522.8,204.1,522.4,204.3,522z M219.4,515.3
		c-1.6-3.5-3.1-7-4.6-10.4h-0.3l-4.6,10.4H219.4z"/>
	<path d="M230.4,500.8c0-0.3,0.3-0.6,0.6-0.6h0.8l14.3,17.9c0,0,0,0,0.1,0v-16.9c0-0.3,0.3-0.6,0.6-0.6h1.1c0.3,0,0.6,0.3,0.6,0.6
		v21.4c0,0.3-0.3,0.6-0.6,0.6h-0.6l-14.6-18.2h0v17.3c0,0.3-0.3,0.6-0.6,0.6H231c-0.3,0-0.6-0.3-0.6-0.6V500.8z"/>
	<path d="M266,501.2c0-0.3,0.3-0.6,0.6-0.6h12.5c0.3,0,0.6,0.3,0.6,0.6v0.9c0,0.3-0.3,0.6-0.6,0.6h-10.7v8.7h9.1
		c0.3,0,0.6,0.3,0.6,0.6v0.9c0,0.3-0.3,0.6-0.6,0.6h-9.1v8.7c0,0.3-0.3,0.6-0.6,0.6h-1.2c-0.3,0-0.6-0.3-0.6-0.6V501.2z"/>
	<path d="M286,501.2c0-0.3,0.3-0.6,0.6-0.6h12.5c0.3,0,0.6,0.3,0.6,0.6v0.9c0,0.3-0.3,0.6-0.6,0.6h-10.7v7.8h9.1
		c0.3,0,0.6,0.3,0.6,0.6v0.9c0,0.3-0.3,0.6-0.6,0.6h-9.1v8.1h10.7c0.3,0,0.6,0.3,0.6,0.6v0.9c0,0.3-0.3,0.6-0.6,0.6h-12.5
		c-0.3,0-0.6-0.3-0.6-0.6V501.2z"/>
	<path d="M306.8,501.2c0-0.3,0.3-0.6,0.6-0.6h8.2c3.8,0,6.9,3,6.9,6.8c0,2.9-1.9,5.4-4.7,6.5l4.4,8.1c0.2,0.4,0,0.9-0.5,0.9h-1.6
		c-0.3,0-0.4-0.2-0.5-0.3l-4.2-8.4h-6.1v8.1c0,0.3-0.3,0.6-0.6,0.6h-1.2c-0.3,0-0.6-0.3-0.6-0.6V501.2z M315.5,512
		c2.4,0,4.6-2,4.6-4.6c0-2.4-2.1-4.5-4.6-4.5h-6.2v9.1H315.5z"/>
	<path d="M329.8,500.8c0-0.3,0.3-0.6,0.6-0.6h0.8l14.3,17.9c0,0,0,0,0.1,0v-16.9c0-0.3,0.3-0.6,0.6-0.6h1.1c0.3,0,0.6,0.3,0.6,0.6
		v21.4c0,0.3-0.3,0.6-0.6,0.6h-0.6l-14.6-18.2h0v17.3c0,0.3-0.3,0.6-0.6,0.6h-1.1c-0.3,0-0.6-0.3-0.6-0.6V500.8z"/>
	<path d="M353.3,522l9.7-21.4c0.1-0.2,0.3-0.3,0.5-0.3h0.3c0.3,0,0.4,0.2,0.5,0.3L374,522c0.2,0.4-0.1,0.8-0.5,0.8h-1.3
		c-0.3,0-0.5-0.2-0.5-0.3l-2.4-5.2H358l-2.3,5.2c-0.1,0.2-0.3,0.3-0.5,0.3h-1.3C353.4,522.8,353.1,522.4,353.3,522z M368.4,515.3
		c-1.6-3.5-3.1-7-4.6-10.4h-0.3l-4.6,10.4H368.4z"/>
	<path d="M379.4,500.8c0-0.3,0.3-0.6,0.6-0.6h0.8l14.3,17.9c0,0,0,0,0.1,0v-16.9c0-0.3,0.3-0.6,0.6-0.6h1.1c0.3,0,0.6,0.3,0.6,0.6
		v21.4c0,0.3-0.3,0.6-0.6,0.6h-0.6l-14.6-18.2h0v17.3c0,0.3-0.3,0.6-0.6,0.6H380c-0.3,0-0.6-0.3-0.6-0.6V500.8z"/>
	<path d="M406,501.2c0-0.3,0.3-0.6,0.6-0.6h7.1c6.1,0,11.2,5,11.2,11.1c0,6.2-5,11.2-11.2,11.2h-7.1c-0.3,0-0.6-0.3-0.6-0.6V501.2z
		 M413.2,520.6c5.2,0,9-3.7,9-9c0-5.2-3.8-8.9-9-8.9h-4.8v17.9H413.2z"/>
	<path d="M441.5,500.3c6.4,0,11.4,5.1,11.4,11.5c0,6.4-5.1,11.4-11.4,11.4s-11.4-5.1-11.4-11.4C430.1,505.4,435.2,500.3,441.5,500.3
		z M441.5,520.9c5.1,0,9.2-4.1,9.2-9.2s-4.2-9.2-9.2-9.2s-9.2,4.2-9.2,9.2S436.5,520.9,441.5,520.9z"/>
</g>
<g class="st0">
	<path d="M168,539.3c0-0.3,0.3-0.6,0.6-0.6h8.2c3.8,0,6.9,3,6.9,6.8c0,2.9-1.9,5.4-4.7,6.5l4.4,8.1c0.2,0.4,0,0.9-0.5,0.9h-1.6
		c-0.3,0-0.4-0.2-0.5-0.3l-4.2-8.4h-6.1v8.1c0,0.3-0.3,0.6-0.6,0.6h-1.2c-0.3,0-0.6-0.3-0.6-0.6V539.3z M176.7,550.1
		c2.4,0,4.6-2,4.6-4.6c0-2.4-2.1-4.5-4.6-4.5h-6.2v9.1H176.7z"/>
	<path d="M211.9,560.1l9.7-21.4c0.1-0.2,0.3-0.3,0.5-0.3h0.3c0.3,0,0.4,0.2,0.5,0.3l9.6,21.4c0.2,0.4-0.1,0.8-0.5,0.8h-1.3
		c-0.3,0-0.5-0.2-0.5-0.3l-2.4-5.2h-11.3l-2.3,5.2c-0.1,0.2-0.3,0.3-0.5,0.3h-1.3C212,560.9,211.7,560.5,211.9,560.1z M227,553.4
		c-1.6-3.5-3.1-7-4.6-10.4h-0.3l-4.6,10.4H227z"/>
	<path d="M264.5,538.8c0.1-0.3,0.3-0.4,0.6-0.4h0.5c0.2,0,0.5,0.2,0.5,0.3l6.3,17.5c0.1,0,0.1,0,0.2,0l6.2-17.5
		c0.1-0.2,0.3-0.3,0.5-0.3h0.5c0.3,0,0.5,0.2,0.6,0.4l4.1,21.4c0.1,0.4-0.1,0.8-0.6,0.8h-1.3c-0.3,0-0.5-0.2-0.6-0.4l-2.8-16.4
		c0,0-0.1,0-0.1,0l-5.8,16.8c-0.1,0.2-0.3,0.3-0.5,0.3h-0.6c-0.2,0-0.5-0.2-0.5-0.3l-5.9-16.8c0,0-0.1,0-0.1,0l-2.8,16.4
		c0,0.2-0.3,0.4-0.6,0.4H261c-0.5,0-0.7-0.3-0.6-0.8L264.5,538.8z"/>
	<path d="M313.4,535.4c-0.1-0.3,0-0.5,0.2-0.6l4.8-2.7c0.2-0.1,0.7-0.2,0.8,0.1l0.6,1.1c0.1,0.3,0.1,0.6-0.2,0.7l-5.1,2.1
		c-0.4,0.2-0.6,0.2-0.7-0.1L313.4,535.4z M315.4,539.3c0-0.3,0.3-0.6,0.6-0.6h1.3c0.3,0,0.6,0.3,0.6,0.6v21c0,0.3-0.3,0.6-0.6,0.6
		H316c-0.3,0-0.6-0.3-0.6-0.6V539.3z"/>
	<path d="M350.3,539.3c0-0.3,0.3-0.6,0.6-0.6h8.2c3.8,0,6.9,3,6.9,6.8c0,2.9-1.9,5.4-4.7,6.5l4.4,8.1c0.2,0.4,0,0.9-0.5,0.9h-1.6
		c-0.3,0-0.4-0.2-0.5-0.3l-4.2-8.4h-6.1v8.1c0,0.3-0.3,0.6-0.6,0.6h-1.2c-0.3,0-0.6-0.3-0.6-0.6V539.3z M359,550.1
		c2.4,0,4.6-2,4.6-4.6c0-2.4-2.1-4.5-4.6-4.5h-6.2v9.1H359z"/>
	<path d="M397.3,539.3c0-0.3,0.3-0.6,0.6-0.6h12.5c0.3,0,0.6,0.3,0.6,0.6v0.9c0,0.3-0.3,0.6-0.6,0.6h-10.7v7.8h9.1
		c0.3,0,0.6,0.3,0.6,0.6v0.9c0,0.3-0.3,0.6-0.6,0.6h-9.1v8.1h10.7c0.3,0,0.6,0.3,0.6,0.6v0.9c0,0.3-0.3,0.6-0.6,0.6h-12.5
		c-0.3,0-0.6-0.3-0.6-0.6V539.3z"/>
	<path d="M439.8,559.8l11.5-18.8v-0.1h-10c-0.3,0-0.6-0.3-0.6-0.6v-1c0-0.3,0.3-0.6,0.6-0.6h12.9c0.3,0,0.6,0.3,0.6,0.6v0.4
		l-11.7,19v0h10.5c0.3,0,0.6,0.3,0.6,0.6v1c0,0.3-0.3,0.6-0.6,0.6h-13.2c-0.3,0-0.6-0.3-0.6-0.6V559.8z"/>
</g>
</svg>
